<svg width="1701" height="795" viewBox="0 0 1701 795" fill="none" xmlns="http://www.w3.org/2000/svg">
<mask id="mask0_2040_112" style="mask-type:alpha" maskUnits="userSpaceOnUse" x="-91" y="0" width="1930" height="795">
<rect x="-81.7422" y="0.651428" width="1920" height="773" transform="rotate(0.625976 -81.7422 0.651428)" fill="#D9D9D9"/>
</mask>
<g mask="url(#mask0_2040_112)">
<path d="M570.046 755.817C179.74 745.153 -43.8483 559.765 -106.854 468.405L-198.566 75.3796L-193.933 -348.595C85.1391 -384.215 745.678 -454.336 1155.25 -449.861C1665.58 -444.285 2017.7 -146.32 2133.8 -48.0779L2134.91 -47.1342C2249.86 50.1274 2146.61 713.039 1956.11 574.949C1765.6 436.86 1057.93 769.148 570.046 755.817Z" fill="url(#paint0_linear_2040_112)" fill-opacity="0.2"/>
<path d="M556.331 729.666C166.025 719.001 -57.5634 533.614 -120.569 442.254L-212.281 49.2282L-207.648 -374.746C71.424 -410.366 731.963 -480.487 1141.54 -476.012C1651.86 -470.437 2003.98 -172.471 2120.08 -74.2293L2121.2 -73.2856C2236.14 23.976 2132.89 686.888 1942.39 548.798C1751.89 410.709 1044.21 742.997 556.331 729.666Z" fill="url(#paint1_linear_2040_112)" fill-opacity="0.2"/>
</g>
<defs>
<linearGradient id="paint0_linear_2040_112" x1="998.41" y1="-451.575" x2="985.167" y2="760.492" gradientUnits="userSpaceOnUse">
<stop stop-color="white" stop-opacity="0"/>
<stop offset="1" stop-color="#FF9494"/>
</linearGradient>
<linearGradient id="paint1_linear_2040_112" x1="984.695" y1="-477.726" x2="971.452" y2="734.341" gradientUnits="userSpaceOnUse">
<stop stop-color="white" stop-opacity="0"/>
<stop offset="1" stop-color="#FF9494"/>
</linearGradient>
</defs>
</svg>
